<?xml version="1.0" standalone="no"?>
<!DOCTYPE svg PUBLIC "-//W3C//DTD SVG 20010904//EN"
 "http://www.w3.org/TR/2001/REC-SVG-20010904/DTD/svg10.dtd">
<svg version="1.0" xmlns="http://www.w3.org/2000/svg"
 width="721.000000pt" height="517.000000pt" viewBox="0 0 721.000000 517.000000"
 preserveAspectRatio="xMidYMid meet">

<g transform="translate(0.000000,517.000000) scale(0.100000,-0.100000)"
fill="#000000" stroke="none">
<path d="M1848 4700 c-52 -16 -98 -52 -126 -98 l-27 -47 -3 -487 c-1 -269 1
-488 5 -488 4 0 44 7 88 15 59 12 307 45 332 45 2 0 3 144 3 321 l0 320 538
-3 537 -3 78 -28 c178 -63 281 -170 343 -357 16 -48 18 -96 20 -359 l2 -304
98 -86 c54 -47 130 -123 170 -168 l73 -81 25 66 c52 136 58 187 63 507 6 325
-1 405 -44 555 -87 302 -309 532 -618 637 -147 50 -200 53 -890 52 -352 0
-652 -4 -667 -9z"/>
<path d="M3735 4668 c91 -54 257 -220 316 -315 l44 -73 471 0 471 0 28 -25
c27 -26 27 -26 24 -143 -4 -109 -6 -122 -37 -184 -37 -75 -89 -124 -167 -159
-62 -27 -185 -38 -442 -39 l-203 0 0 -210 0 -210 123 -1 c67 -1 246 -4 397 -8
312 -7 327 -11 415 -92 58 -53 91 -117 105 -200 20 -126 8 -218 -30 -239 -12
-6 -259 -10 -654 -10 l-635 0 -70 83 c-180 213 -372 365 -616 484 -309 151
-612 211 -1005 200 -292 -9 -556 -53 -805 -136 l-60 -19 85 6 c133 11 416 7
515 -7 322 -46 638 -177 890 -370 192 -147 410 -403 510 -600 l37 -72 936 3
937 3 60 24 c170 68 278 192 320 367 19 77 19 289 1 379 -43 216 -158 388
-335 502 -2 1 6 15 18 32 37 52 90 173 112 256 25 98 36 312 20 400 -27 146
-130 284 -262 349 -129 64 -151 65 -909 66 l-675 0 70 -42z"/>
<path d="M1694 3265 c-3 -7 -4 -185 -2 -397 l3 -385 30 -48 c22 -36 45 -57 85
-78 l54 -28 681 4 c400 2 691 7 708 13 l28 9 -42 70 c-51 84 -138 201 -209
278 l-52 57 -429 0 -429 0 0 234 c0 129 -4 237 -8 240 -15 9 -228 35 -321 39
-64 2 -94 0 -97 -8z"/>
<path d="M410 1160 l0 -300 255 0 c364 0 345 -17 345 311 l0 221 -34 34 -34
34 -266 0 -266 0 0 -300z m490 0 l0 -190 -190 0 -190 0 0 190 0 190 190 0 190
0 0 -190z"/>
<path d="M1144 1426 l-34 -34 0 -266 0 -266 55 0 55 0 0 100 0 100 190 0 190
0 0 -100 0 -100 55 0 55 0 0 266 0 266 -34 34 -34 34 -232 0 -232 0 -34 -34z
m456 -166 l0 -90 -190 0 -190 0 0 90 0 90 190 0 190 0 0 -90z"/>
<path d="M1851 1444 c-35 -25 -51 -75 -51 -160 0 -83 18 -136 54 -157 14 -8
93 -14 231 -17 l210 -5 3 -67 3 -68 -196 0 -195 0 0 25 c0 24 -3 25 -56 25
l-57 0 7 -47 c4 -34 15 -56 36 -78 l30 -30 235 0 235 0 32 33 c32 31 33 36 36
126 4 107 -9 144 -61 176 -29 18 -51 20 -234 20 l-203 0 0 65 0 65 195 0 195
0 0 -25 c0 -24 3 -25 55 -25 55 0 55 0 55 30 0 42 -23 94 -51 114 -20 14 -57
16 -254 16 -197 0 -234 -2 -254 -16z"/>
<path d="M2500 1160 l0 -300 55 0 55 0 0 125 0 125 198 -2 197 -3 3 -122 3
-123 54 0 55 0 0 300 0 300 -55 0 -55 0 0 -120 0 -120 -200 0 -200 0 0 120 0
120 -55 0 -55 0 0 -300z"/>
<path d="M3220 1160 l0 -300 256 0 c284 0 299 3 329 66 20 42 20 199 0 234
-10 17 -14 57 -15 122 0 53 -5 109 -12 123 -23 51 -46 55 -313 55 l-245 0 0
-300z m460 125 l0 -65 -177 2 -178 3 -3 63 -3 62 181 0 180 0 0 -65z m30 -245
l0 -70 -192 2 -193 3 -3 68 -3 67 196 0 195 0 0 -70z"/>
<path d="M3948 1431 l-33 -29 -3 -224 c-5 -331 -15 -321 316 -316 l224 3 29
33 29 32 0 226 c0 234 -3 253 -44 286 -18 16 -48 18 -253 18 l-233 0 -32 -29z
m452 -271 l0 -190 -190 0 -190 0 0 190 0 190 190 0 190 0 0 -190z"/>
<path d="M4644 1426 l-34 -34 0 -266 0 -266 55 0 55 0 0 100 0 100 190 0 190
0 0 -100 0 -100 55 0 55 0 0 266 0 266 -34 34 -34 34 -232 0 -232 0 -34 -34z
m456 -166 l0 -90 -190 0 -190 0 0 90 0 90 190 0 190 0 0 -90z"/>
<path d="M5310 1160 l0 -300 55 0 55 0 0 105 0 105 99 0 100 0 87 -105 87
-105 58 0 c48 0 59 3 59 16 0 9 -31 54 -70 100 -38 45 -70 85 -70 88 0 3 16 6
36 6 28 0 44 8 70 34 l34 34 0 127 0 127 -34 34 -34 34 -266 0 -266 0 0 -300z
m490 105 l0 -85 -190 0 -190 0 0 85 0 85 190 0 190 0 0 -85z"/>
<path d="M6000 1160 l0 -301 270 3 270 3 32 33 33 32 3 217 c3 232 -1 258 -46
293 -23 19 -41 20 -293 20 l-269 0 0 -300z m500 0 l0 -190 -195 0 -195 0 0
190 0 190 195 0 195 0 0 -190z"/>
</g>
</svg>
